<svg width="40" height="40" viewBox="0 0 40 40" fill="none" xmlns="http://www.w3.org/2000/svg">
<rect width="40" height="40" fill="#C1B3B3"/>
<g id="Prototipo desktop">
<path d="M-9489 -3132C-9489 -3133.1 -9488.1 -3134 -9487 -3134H3522C3523.1 -3134 3524 -3133.1 3524 -3132V6895C3524 6896.1 3523.1 6897 3522 6897H-9487C-9488.1 6897 -9489 6896.1 -9489 6895V-3132Z" fill="#474545"/>
<path d="M-9487 -3133H3522V-3135H-9487V-3133ZM3523 -3132V6895H3525V-3132H3523ZM3522 6896H-9487V6898H3522V6896ZM-9488 6895V-3132H-9490V6895H-9488ZM-9487 6896C-9487.55 6896 -9488 6895.55 -9488 6895H-9490C-9490 6896.66 -9488.66 6898 -9487 6898V6896ZM3523 6895C3523 6895.55 3522.55 6896 3522 6896V6898C3523.66 6898 3525 6896.66 3525 6895H3523ZM3522 -3133C3522.55 -3133 3523 -3132.55 3523 -3132H3525C3525 -3133.66 3523.66 -3135 3522 -3135V-3133ZM-9487 -3135C-9488.66 -3135 -9490 -3133.66 -9490 -3132H-9488C-9488 -3132.55 -9487.55 -3133 -9487 -3133V-3135Z" fill="black" fill-opacity="0.1"/>
<g id="Tela -modal sucess" clip-path="url(#clip0_171_2351)">
<rect width="1280" height="832" transform="translate(-621 -399)" fill="white"/>
<g id="Backdrop">
<rect width="1280" height="832" transform="translate(-621 -399)" fill="black" fill-opacity="0.5"/>
</g>
<g id="Modal sucess">
<rect x="-155.5" y="-103.5" width="350" height="241" fill="#FCFDFF"/>
<rect x="-155.5" y="-103.5" width="350" height="241" stroke="black"/>
<rect x="-155.5" y="-103.5" width="350" height="241" stroke="black" stroke-opacity="0.2"/>
<g id="Frame 151">
<g id="Vertical container">
<g id="Sucesso B">
<rect id="Vertical container_2" x="0.480769" y="0.480769" width="39.0385" height="39.0385" rx="19.5192" fill="#118822" stroke="#FCFDFF" stroke-width="0.961538"/>
<g id="Text input">
<path id="Vector" fill-rule="evenodd" clip-rule="evenodd" d="M16.1777 27.1543L31.666 11.666L34.0227 14.0227L16.1777 31.8677L6.66602 22.356L9.02268 19.9993L16.1777 27.1543Z" fill="#FCFDFF"/>
</g>
</g>
</g>
</g>
</g>
</g>
</g>
<defs>
<clipPath id="clip0_171_2351">
<rect width="1280" height="832" fill="white" transform="translate(-621 -399)"/>
</clipPath>
</defs>
</svg>
